<?xml version="1.0" encoding="UTF-8" standalone="no"?>
<svg
   version="1.1"
   viewBox="0 0 1440 1440"
   width="360"
   height="360"
   id="svg101"
   xmlns="http://www.w3.org/2000/svg"
   xmlns:svg="http://www.w3.org/2000/svg">
  <defs
     id="defs101" />
  <path
     transform="translate(0)"
     d="m0 0h1440v1440h-1440z"
     fill="#F7F7F6"
     id="path1" />
  <path
     transform="translate(696,662)"
     d="m0 0h91l49 3 38 5 28 5 30 7 29 9 21 9 17 9 12 9 7 7 5 9 1 4v16l-5 15-9 16-4 30-6 53-1 5 5-5 7-10 14-15 14-11 15-9 14-6 17-5 11-2h28l14 4 15 8 10 10 8 14 5 15 1 7v17l-3 18-5 16-9 20-10 17-13 16-11 11-13 9-23 12-29 11-28 10-29 12-19 9-16 10-14 11-10 9-8 7-4 2v2l-7 6-6 8-4 13h-4l-1-6-14 15-5 6 5-1h11l23 2 24 4 18 5 15 8 7 7 4 8 1 3v9l-4 11-7 10-13 13-18 13-21 12-27 12-24 9-41 13-28 7-36 7-42 6-49 4h-62l-62-4-40-5-44-7-34-7-27-7-19-7-14-8-3-3v-2l6 2 16 8 22 6 32 6 45 6 57 6 57 4 26 1h30l38-2 35-3 42-6 39-8 30-8 47-16 17-7 19-10 14-8 16-12 11-10 6-9 2-6v-11l-3-6-5-5-8-5-13-5-25-5-18-2h-35l-5 3-3 4h18l18 3 14 5 13 8 8 9 1 3v9l-4 7-9 8-18 10-23 10-28 9-33 8-37 7-46 6-35 3-23 1h-60l-27-1-44-4-34-6-24-6-10-4 3-1 27 6 28 4 19 2 42 2h67l41-2 43-4 46-7 35-7 30-8 20-7 21-9 16-9 9-8 1-7-4-6-9-6-11-5-14-4-20-2h-17l-18 12-18 10-20 9-30 10-24 5-26 3h-46l-36-3-27-4-24-6-19-8-15-9-1-4 10 3 12 4 22 3h49l34-2 40-4 26-4 24-6 27-10 20-10 16-10 19-14 12-11 9-8 7-8 10-12 13-18 14-24 14-29 13-34 9-28 10-38 8-39 12-67-15 9-16 7-28 10-24 7-34 8-45 8-50 6-47 4-49 3-20 1h-69l-48-2-48-4-38-5-27-6-24-7-20-8-16-8-8-5-3-3 7 55 7 41 9 44 14 49v2l-4-2-10-23-16-47-11-41-6-27-7-41-3-28v-20l1-8 6-4 9-4 14-9 16-8 15-6 25-8 36-9 33-6 50-7 52-5 29-2 26-1h64v3l-2 1-63 6-42 6-37 6-63 12-42 9-30 8-30 10-19 9-15 10-5 4 1 4 8 8 5 3 6-2 19-9 21-8 26-8 32-8 34-7 45-7 44-5 54-4 56-2h29l63 2 38 3 37 4 39 6 29 6 22 6h11l4 2 6 1 2-5 4-8 1-4v-11l-3-5-9-8-17-10-18-8-30-10-36-9-33-6-29-4-32-3-48-2h-77l-74 3-34 2-86 1-11 2h-7l-1-4 9-4 8-2 10-1 56-1 58-4 49-3z"
     fill="#472607"
     id="path2" />
  <path
     transform="translate(1094,835)"
     d="m0 0h25l15 4 10 7 6 7 4 10 1 6v13l-3 16-6 16-8 14-11 14-13 13-14 10-16 8-25 10-20 7-25 9-27 11-17 8-8 5h-3l3-9 9-25 9-29 11-44 3-10 10-13 12-13 12-12 9-8 18-12 17-8 14-4z"
     fill="#F8F8F7"
     id="path3" />
  <path
     transform="translate(730,88)"
     d="m0 0h16l12 3 11 6 10 8 9 9 9 13 8 16 5 14 2 9 1 12v10l-2 18-5 21-6 18-12 25-10 17-12 19-12 17-9 11-19 19-8 7-10 10-5 8 1 4 7 13 1 13h-3l-5-16-5-5v16l2 10v4l-4-2-5-13v-10l2-11-8-6-13-5-32-7-17-6-30-14-23-13-16-10-13-10-15-13-10-11-10-14-9-16-5-16-2-11v-24l4-20 5-12 7-10 7-7 14-8 13-4 7-1h13l16 3 19 8 13 9 14 14 9 13 10 17 12 25 6 18 3 13v15h-2l-3-8-5-16-9-19-10-17-10-15-12-16-9-9-15-10-12-5-16-3h-11l-12 2-14 7-10 11-6 12-2 6-1 7v26l4 16 8 17 12 16 11 12 11 9 13 10 20 13 29 16 20 9 21 7 25 7 14 7 5 4 2-3 6-10 11-12 16-16 11-14 10-14 15-25 10-18 8-17 8-22 4-17 1-7v-31l-4-15-8-17-8-11-7-8-11-7-10-4-4-1h-17l-13 4-10 6-10 9-9 10-7 12-5 14-4 27-1 16v33l2 19 4 14 1 6-5-4-6-13-4-14-4-21-1-9v-40l3-20 7-19 8-13 11-12 11-10 15-8z"
     fill="#472606"
     id="path4" />
  <path
     transform="translate(799,327)"
     d="m0 0h10l14 3 16 8 10 9 6 7 9 15 6 16 2 10v24l-3 18-7 25-6 15-8 16-9 15-9 9h-2l1-4 6-9 8-19 7-26 5-24 2-16v-14l-3-17-5-12-7-12-6-7-12-9-10-4-5-1h-15l-12 3-11 6-13 11-11 14-8 16-4 13-2 12-1 11 1 26 4 24 7 28 7 23 10 25 12 22 8 16 3 9 1 7 2 1 10-3 11-1 39-1 21-3 30-7 28-8 21-8 16-8 13-8 10-8 10-9 8-10 6-10 6-16 3-14v-21l-4-12-5-9-6-7-11-7-9-4-10-2h-24l-16 4-16 8-12 9-11 9-12 11-22 22-9 13-8 14-4 2 3-10 5-12 6-11 10-15 12-14 14-15 14-12 16-10 16-7 13-3 18-1 17 2 16 6 13 9 7 7 7 10 5 14 1 5v24l-3 16-6 18-6 11-9 12-14 14-16 12-22 12-19 8-30 9-32 7-26 4h-57l-8 2-2 12-6 10-4 4-4-1 8-14 2-7-5 2-8 7-6 11-4 1 1-5 6-12 7-7 8-5-1-10-7-16-8-12-10-16-8-17-12-36-7-26-4-22-1-10v-24l3-21 5-18 8-16 11-14 9-9 13-9 16-8 6-2z"
     fill="#472606"
     id="path5" />
  <path
     transform="translate(962,416)"
     d="m0 0 17 1 11 3 10 4 13 9 7 7 7 10 5 14 1 5v24l-3 16-6 18-6 11-9 12-14 14-16 12-22 12-19 8-30 9-32 7-26 4h-57l-9 2v-2l8-2 13-2h17 3 11l14-1 15-1 5-2 3-1 9-1 1-2h3v-2h-7l-20 4-19 2-41 1-11 3-4-1 1-2 2 1 10-3 11-1 39-1 21-3 30-7 28-8 21-8 16-8 13-8 10-8 10-9 8-10 6-10 6-16 3-14v-21l-4-12-5-9-6-7-11-7-9-4-10-2h-24l-16 4-16 8-12 9-11 9-12 11-22 22-9 13-8 14-4 2 3-10 5-12 6-11 10-15 12-14 14-15 14-12 16-10 16-7 13-3z"
     fill="#472606"
     id="path6" />
  <path
     transform="translate(730,88)"
     d="m0 0h16l12 3 11 6 10 8 9 9 9 13 8 16 5 14 2 9 1 12v10l-2 18-5 21-6 18-12 25-10 17-12 19-12 17-2 1 2-8-5 2h-3v-3l10-15 12-20 10-18 8-17 8-22 4-17 1-7v-31l-4-15-8-17-8-11-7-8-11-7-10-4-4-1h-17l-13 4-10 6-10 9-9 10-7 12-5 14-4 27-1 16v33l2 19 4 14 1 6-5-4-6-13-4-14-4-21-1-9v-40l3-20 7-19 8-13 11-12 11-10 15-8z"
     fill="#472606"
     id="path7" />
  <path
     transform="translate(906,1130)"
     d="m0 0h14l25 2 22 5 12 5 9 5 7 7 4 8 1 3v9l-4 11-7 10-13 13-18 13-21 12-27 12-24 9-41 13-28 7-36 7-42 6-49 4h-62l-62-4-40-5-44-7-34-7-27-7-19-7-14-8-3-3v-2l6 2 16 8 22 6 32 6 45 6 57 6 57 4 26 1h30l38-2 35-3 42-6 39-8 30-8 47-16 17-7 19-10 14-8 16-12 11-10 6-9 2-6v-11l-3-6-5-5-8-5-13-5-25-5-18-2-2-1-19-1v-1l7-1z"
     fill="#391606"
     id="path8" />
  <path
     transform="translate(874,1143)"
     d="m0 0h21l18 3 14 5 13 8 8 9 1 3v9l-4 7-9 8-18 10-23 10-28 9-33 8-37 7-46 6-35 3-23 1h-60l-27-1-44-4-34-6-24-6-10-4 3-1 27 6 28 4 19 2 42 2h67l41-2 43-4 46-7 35-7 30-8 20-7 21-9 16-9 9-8 1-7-4-6-9-6-11-5-14-4-20-2-3-1-12-1v-3z"
     fill="#281207"
     id="path9" />
  <path
     transform="translate(702,663)"
     d="m0 0h72l46 2 4 2h-2v2l-4 2h-11l-14 1-20-1-4 1-3-1-16 1h-115v2l-2 1-66 4-82 1-14 3h-7l-1-4 9-4 8-2 10-1 56-1 86-6 44-1z"
     fill="#371506"
     id="path10" />
  <path
     transform="translate(906,1130)"
     d="m0 0h14l25 2 22 5 12 5 9 5 7 7 4 8 1 3v9l-4 11-7 10-13 13-18 13-21 12-27 12-24 9-41 13-20 5-17 1-3-1-1 2-5 2h-4l-10 1-2 1-13 1-7 1-9-3 3-1v-2l39-6 34-7 30-8 47-16 17-7 19-10 14-8 16-12 11-10 6-9 2-6v-11l-3-6-5-5-8-5-13-5-25-5-18-2-2-1-19-1v-1l7-1z"
     fill="#271207"
     id="path11" />
  <path
     transform="translate(1011,525)"
     d="m0 0 2 4-2 2h-1l-2 6-3 5 1 2-4 4-4 8-5 2-4 5 3-1 1 3-11 9-21 12-20 9-26 8-33 8-23 4-9 1h-57l-9 2v-2l8-2 13-2h17 3 11l14-1 15-1 5-2 3-1 9-1 1-2h3v-2h-7l-20 4-19 2-41 1-11 3-4-1 1-2 2 1 10-3 11-1 39-1 21-3 30-7 28-8 21-8 16-8 13-8 10-8 10-9 8-10 6-10z"
     fill="#472606"
     id="path12" />
  <path
     transform="translate(656,699)"
     d="m0 0h64v3l-2 1-63 6-42 6-13 2h-10l-5-2-1-4h-6l-4-2-4 1h-6v2h-9l-6-1h-8l-11 1v2l-3 1h-15l-14 3-10 1-12 2h-5v-2l41-7 45-6 56-5z"
     fill="#3A1706"
     id="path13" />
  <path
     transform="translate(754,552)"
     d="m0 0 1 4h2l5 10 2 1 3 6 3 1 6 11 4 5 4 12 1 9 9-2 5-1 41-1 19-2 20-4 7 1v2l-7 3-8 1-2 2-4 1-22 1-11 1h-6l-3 1-1-1h-17l-21 3v10l-4 10-7 8-4-1 8-14 2-7-5 2-8 7-6 11-4 1 1-5 6-12 7-7 8-5-1-10-7-16-8-12-9-14 1-4-1-3z"
     fill="#291207"
     id="path14" />
  <path
     transform="translate(385,1241)"
     d="m0 0 6 2 16 8 22 6 32 6 45 6 47 5 7 2v2l-2 1-2 4h-13v-2l-9-4-9 3-19-1-45-8-33-8-24-8-16-9-3-3z"
     fill="#271207"
     id="path15" />
  <path
     transform="translate(750,315)"
     d="m0 0 4 1-2 10-12 13-14 14-8 7-10 10-5 8 1 4 7 13 1 13h-3l-5-16-5-5v16l2 10v4l-4-2-5-13v-10l2-11-5-6 3-1 7 2 1-7 6-9 9-10 17-17 11-14 4-2h2z"
     fill="#472606"
     id="path16" />
  <path
     transform="translate(912,806)"
     d="m0 0 4 1-16 6-26 6-43 6-48 5-51 4-62 3-38 1h-38v-1l12-1 63-3 98-6 48-4 35-4 36-6 19-5z"
     fill="#F8F8F7"
     id="path17" />
  <path
     transform="translate(641,773)"
     d="m0 0h6v1l-26 4-53 6-64 9-39 7-21 5-21 7-10 4h-4l2-4 26-10 22-6 36-7 59-8 42-4z"
     fill="#F8F8F7"
     id="path18" />
  <path
     transform="translate(679,758)"
     d="m0 0h49l46 2 36 4 4 2-21-1-37-2h-79l-55 1-47 2-10 1h-9l2-2 22-3 30-2z"
     fill="#F8F8F7"
     id="path19" />
  <path
     transform="translate(695,740)"
     d="m0 0h90l27 1 51 4 9 2-4 2-9 3-6-1h-26l-12-3-26-2-5-1-30-1-11-1h-24l-11-1h-38v-1z"
     fill="#381506"
     id="path20" />
  <path
     transform="translate(564,670)"
     d="m0 0h18l-1 2h-2l-1 2h-7l-2 2h-4l-19 1-3 1-13 1-45 1-14 3h-7l-1-4 9-4 8-2 10-1 56-1z"
     fill="#251107"
     id="path21" />
  <path
     transform="translate(370,916)"
     d="m0 0 1 3h2l2 5v6l3-1 3 12 5 9 12 42 3 13-4-2-10-23-16-47-3-10v-6z"
     fill="#271207"
     id="path22" />
  <path
     transform="translate(563,1165)"
     d="m0 0 10 3 12 4 22 3h84v1l-14 1-2 1h-64l-1 2-2-1v2l-5 2-1 2 2 1h-6l-19-8-15-9z"
     fill="#3B1A06"
     id="path23" />
  <path
     transform="translate(906,1130)"
     d="m0 0h14l25 2 22 5 12 5 9 5 2 3h-2l1 4-5-1-8-5-13-5-25-5-18-2-2-1-19-1v-1l7-1z"
     fill="#291307"
     id="path24" />
  <path
     transform="translate(531,1276)"
     d="m0 0 5 1 8 3-1 3 26 1 10 2 37 2 32 1 20-1 8 1 30-2 22-1 33-4h7v1l-38 5-40 3h-62l-62-4-40-5-13-2v-1h12l6-2z"
     fill="#482707"
     id="path25" />
  <path
     transform="translate(1019,504)"
     d="m0 0 4 1 2 1v8l-2 1-3 9-2 5-1 4-1 3h-2l-1 5-3 8-15 15-4-1-3 1 2-4 6-5h2l3-7 3-5 5-10 1-5 2 1 1-7 4-11z"
     fill="#391606"
     id="path26" />
  <path
     transform="translate(879,601)"
     d="m0 0 7 1v2l-7 3-8 1-2 2-4 1-22 1-11 1h-6l-3 1-1-1h-24l3-3-2-2 41-1 19-2z"
     fill="#381506"
     id="path27" />
  <path
     transform="translate(494,1227)"
     d="m0 0 11 2 25 5 31 4 28 2 24 1h90v1l-22 1h-73l-20-1h-18l1 2h-9l-34-6-24-6-10-4z"
     fill="#462506"
     id="path28" />
  <path
     transform="translate(702,368)"
     d="m0 0 3 2h-2l1 6-1 5 6 10 2 4 1 13h-3l-5-16-5-5v16l2 10v4l-4-2-5-13v-10l2-11-5-6 3-1 7 2 2-6z"
     fill="#240F07"
     id="path29" />
  <path
     transform="translate(604,746)"
     d="m0 0h6l-4 4-4 3-26 2h-10l-10-1-10 2-3 1-18 1v2l-5 2-7-1 1-3 41-7 31-4z"
     fill="#3A1706"
     id="path30" />
  <path
     transform="translate(881,470)"
     d="m0 0 2 3-8 10-14 14-9 13-8 14-4 2 3-10 5-12 6-11 4-3h3v-5l9-7 1-2 6-3 1-2z"
     fill="#3A1706"
     id="path31" />
  <path
     transform="translate(672,792)"
     d="m0 0h6v1l-5 1-36 3-35 4-60 8-35 4h-8v-1l74-11 52-6 25-2z"
     fill="#F8F8F7"
     id="path32" />
  <path
     transform="translate(728,784)"
     d="m0 0h36l33 2 38 4 14 2v1h-11l-49-4-17-1h-89l1-2z"
     fill="#F8F8F7"
     id="path33" />
  <path
     transform="translate(750,315)"
     d="m0 0 4 1-2 10-12 13-10 10h-3v-5l2-6 8-7 4-4 4-8 2-2h2z"
     fill="#3A1706"
     id="path34" />
  <path
     transform="translate(820,755)"
     d="m0 0 25 2 35 5 39 8 31 7v1l-10-1-50-10-52-8-16-2z"
     fill="#F8F8F7"
     id="path35" />
  <path
     transform="translate(667,700)"
     d="m0 0h39v3l-9 1-1 1-10 1h-30l-3-5z"
     fill="#391706"
     id="path36" />
  <path
     transform="translate(591,334)"
     d="m0 0 10 3 6 4 17 8 7 4 8 4 3 3-6-1-5-1-14-4-10-5v-4l-4 1 1-3-5-1-8-7z"
     fill="#391606"
     id="path37" />
  <path
     transform="translate(449,821)"
     d="m0 0 17 1 30 5 43 8 16 2v1h-10l-23-3-57-10-16-2z"
     fill="#F8F8F7"
     id="path38" />
  <path
     transform="translate(858,493)"
     d="m0 0 4 1-2 5-4 5-8 13-6 9h-2l3-10 5-12 5-9z"
     fill="#2B1407"
     id="path39" />
  <path
     transform="translate(541,708)"
     d="m0 0h9l-1 2-19 2v2l-3 1h-15l-14 3-10 1-12 2h-5v-2l41-7z"
     fill="#3F1D06"
     id="path40" />
  <path
     transform="translate(563,1165)"
     d="m0 0 10 3 12 4 10 3-3 2 1 2h-2l1 3-7-1-13-7-8-5z"
     fill="#2A1407"
     id="path41" />
  <path
     transform="translate(691,377)"
     d="m0 0 4 2 3 8 1 4v12l2 10v4l-4-2-5-13v-10l2-11z"
     fill="#472606"
     id="path42" />
  <path
     transform="translate(665,212)"
     d="m0 0 2 2 1 25v8l4 10-1 5-3-1-6-27v-15h2z"
     fill="#381506"
     id="path43" />
  <path
     transform="translate(853,462)"
     d="m0 0 4 4-2 5v5l-2 1-3 13-4 4-4-1 2-6 3-11 2-2 3-11z"
     fill="#391706"
     id="path44" />
  <path
     transform="translate(778,614)"
     d="m0 0 1 2-3 3h4l1 4-4-1-8 6-4 5-6 10h-3l1-5 6-12 7-7z"
     fill="#351907"
     id="path45" />
  <path
     transform="translate(656,699)"
     d="m0 0h64v3l-2 1-10 1h-11v-1h9v-3l-39 1h-37v-1z"
     fill="#462506"
     id="path46" />
  <path
     transform="translate(761,1282)"
     d="m0 0h7v1l-38 5-40 3h-15l1-2 30-2 22-1z"
     fill="#482707"
     id="path47" />
  <path
     transform="translate(655,359)"
     d="m0 0h2v2h8l16 5 6 4-4 2-10-4-2-1-13-2-3-2-7-1-1-2z"
     fill="#341406"
     id="path48" />
  <path
     transform="translate(945,995)"
     d="m0 0h2l-1 5-11 26-6 10-2 5-5 7-1-3 15-29z"
     fill="#3C1A06"
     id="path49" />
  <path
     transform="translate(603,765)"
     d="m0 0h24l-1 3-3 2h-5l-3 1h-11l-2-1z"
     fill="#381506"
     id="path50" />
  <path
     transform="translate(646,231)"
     d="m0 0 3 1 3 7 2 1 3 10 2 4-1 5h-3l-6-14-1-9-2-1z"
     fill="#251107"
     id="path51" />
  <path
     transform="translate(702,381)"
     d="m0 0 4 4 5 10 1 13h-3l-5-16-5-6h3z"
     fill="#3F2007"
     id="path52" />
  <path
     transform="translate(542,753)"
     d="m0 0h6l-2 1v2l-3 1-18 1v2l-5 2-7-1 1-3z"
     fill="#3C1A06"
     id="path53" />
  <path
     transform="translate(531,1276)"
     d="m0 0 5 1 8 3-1 3h-10l-20-3v-1h12l6-2z"
     fill="#3D1B06"
     id="path54" />
  <path
     transform="translate(805,612)"
     d="m0 0h17l3 3-32 1-9 2v-2l8-2z"
     fill="#482707"
     id="path55" />
  <path
     transform="translate(838,498)"
     d="m0 0 4 1 2-1-2 5-6 8-6 6h-2l1-4 6-9z"
     fill="#482707"
     id="path56" />
  <path
     transform="translate(744,318)"
     d="m0 0 2 1-2 5-4 5-9 9-3-1 10-11z"
     fill="#482707"
     id="path57" />
  <path
     transform="translate(667,700)"
     d="m0 0 4 1v3l-2 2h-13l-3-5z"
     fill="#1F0D08"
     id="path58" />
  <path
     transform="translate(847,506)"
     d="m0 0 1 4 4-2-2 5-6 11-4 2 3-10z"
     fill="#472606"
     id="path59" />
  <path
     transform="translate(494,1227)"
     d="m0 0 11 2 23 5v1l-9 1-21-6z"
     fill="#482707"
     id="path60" />
  <path
     transform="translate(778,626)"
     d="m0 0 1 4h3l-2 6-7 8-4-1 8-14z"
     fill="#3B1E07"
     id="path61" />
  <path
     transform="translate(528,1234)"
     d="m0 0 13 2v2h9l-2 2h-10l-14-3-1-2z"
     fill="#391E07"
     id="path62" />
  <path
     transform="translate(803,1272)"
     d="m0 0h18l-4 2-19 4h-6l3-3 4-1 1 1 3-1z"
     fill="#3E1C06"
     id="path63" />
  <path
     transform="translate(671,254)"
     d="m0 0 2 1 4 14 1 6-5-4-4-8 2-6z"
     fill="#482707"
     id="path64" />
  <path
     transform="translate(641,220)"
     d="m0 0 4 2 3 5 1 5-2 1 1 7 2 1-2 2-4-10-1-4-1-3z"
     fill="#3A1706"
     id="path65" />
  <path
     transform="translate(768,289)"
     d="m0 0 3 1-1 5-6 9-3-3 1-5z"
     fill="#381506"
     id="path66" />
  <path
     transform="translate(664,239)"
     d="m0 0 3 2 2 9 3 7-1 5-3-1-4-18z"
     fill="#220F07"
     id="path67" />
  <path
     transform="translate(754,552)"
     d="m0 0 1 4h2l4 7-1 2v3l-2 2-5-8 1-4-1-3z"
     fill="#391806"
     id="path68" />
  <path
     transform="translate(672,363)"
     d="m0 0 10 4 5 4-4 1-10-4-2-2z"
     fill="#381506"
     id="path69" />
  <path
     transform="translate(899,1129)"
     d="m0 0h23l16 2v1l-18-1h-14l-6 1-4-2z"
     fill="#401E06"
     id="path70" />
  <path
     transform="translate(808,1179)"
     d="m0 0h3v2l-20 7h-7l4-2z"
     fill="#3C1B06"
     id="path71" />
  <path
     transform="translate(763,630)"
     d="m0 0 3 1-6 11-4 1 1-5 3-7z"
     fill="#472606"
     id="path72" />
  <path
     transform="translate(541,1236)"
     d="m0 0 17 2-1 3 3 2-11-1-5-1 4-2-7-1z"
     fill="#482707"
     id="path73" />
  <path
     transform="translate(848,479)"
     d="m0 0 2 1-1 5-3 9-4-1 2-6 2-7z"
     fill="#200D07"
     id="path74" />
  <path
     transform="translate(794,609)"
     d="m0 0h7l1 2-4 1v2l-9 1 1-5z"
     fill="#200D07"
     id="path75" />
  <path
     transform="translate(370,916)"
     d="m0 0 1 3h2l2 5-1 4-2-2-2 3-2-6v-6z"
     fill="#371706"
     id="path76" />
  <path
     transform="translate(945,995)"
     d="m0 0h2l-1 5-7 17h-2l1-6z"
     fill="#391906"
     id="path77" />
  <path
     transform="translate(708,363)"
     d="m0 0v3l-1 6-3 2-1-5-4 5 1-5 5-5z"
     fill="#3C1B06"
     id="path78" />
  <path
     transform="translate(840,1164)"
     d="m0 0h2v2l-17 9-4-1 12-7z"
     fill="#371906"
     id="path79" />
  <path
     transform="translate(659,365)"
     d="m0 0 12 1 9 4 6 3-2 1-15-5-10-2z"
     fill="#482707"
     id="path80" />
  <path
     transform="translate(1112,989)"
     d="m0 0h3v2l-19 10h-3v-2l16-8z"
     fill="#391906"
     id="path81" />
  <path
     transform="translate(639,766)"
     d="m0 0h13l-1 3-5 1-4-2-1 3-3-2z"
     fill="#381506"
     id="path82" />
  <path
     transform="translate(636,204)"
     d="m0 0 4 2 4 8-1 3-4 1-1-5v-6l-2-1z"
     fill="#381506"
     id="path83" />
  <path
     transform="translate(440,747)"
     d="m0 0 1 3-16 5h-4v-2l11-3z"
     fill="#3B1A06"
     id="path84" />
  <path
     transform="translate(758,564)"
     d="m0 0 6 3-1 5 2 4h-3l-3-4v-6z"
     fill="#2D1407"
     id="path85" />
  <path
     transform="translate(481,717)"
     d="m0 0h12v1l-17 3h-5v-2z"
     fill="#3D1B06"
     id="path86" />
  <path
     transform="translate(1089 1e3)"
     d="m0 0h3v2l-15 6h-5l2-2 13-5z"
     fill="#3A1A06"
     id="path87" />
  <path
     transform="translate(542,753)"
     d="m0 0h6l-2 1v2l-3 1h-9l-3-2z"
     fill="#3E1C06"
     id="path88" />
  <path
     transform="translate(982,1144)"
     d="m0 0 6 3 2 3h-2l1 4-5-1v-3l-2-1z"
     fill="#432206"
     id="path89" />
  <path
     transform="translate(840,493)"
     d="m0 0h7l-2 5-4 3-2-1z"
     fill="#3B1A06"
     id="path90" />
  <path
     transform="translate(416,755)"
     d="m0 0 4 1-9 4-4 2-4-1 7-4z"
     fill="#3B1A06"
     id="path91" />
  <path
     transform="translate(519,711)"
     d="m0 0h11v3l-3 1-10-1 2-1z"
     fill="#3A1806"
     id="path92" />
  <path
     transform="translate(702,381)"
     d="m0 0 4 4 1 4-3 3-5-6h3z"
     fill="#472606"
     id="path93" />
  <path
     transform="translate(637,743)"
     d="m0 0h14v1h-10l-1 3-7-1-1-2z"
     fill="#381506"
     id="path94" />
  <path
     transform="translate(907,1131)"
     d="m0 0 16 1v1l-24 1v-1l7-1z"
     fill="#391606"
     id="path95" />
  <path
     transform="translate(385,1241)"
     d="m0 0 6 2 5 4-5 1-6-5z"
     fill="#3C1F07"
     id="path96" />
  <path
     transform="translate(512,712)"
     d="m0 0h7l-2 2-10 2-4-1 3-2z"
     fill="#3E1C06"
     id="path97" />
  <path
     transform="translate(774,279)"
     d="m0 0 4 2-5 6-2 1-2-2 1-2h2z"
     fill="#391606"
     id="path98" />
  <path
     transform="translate(873,1105)"
     d="m0 0 3 1-4 2v2l-8 6v-3l8-7z"
     fill="#3E1B06"
     id="path99" />
  <path
     transform="translate(702,368)"
     d="m0 0 3 2h-2l1 6-2 2v-2l-3-1z"
     fill="#281207"
     id="path100" />
  <path
     transform="translate(757,308)"
     d="m0 0 3 1-4 7h-2l1-7z"
     fill="#3A1706"
     id="path101" />
</svg>
